<?xml version="1.0" encoding="UTF-8"?> <svg xmlns="http://www.w3.org/2000/svg" xmlns:xlink="http://www.w3.org/1999/xlink" xml:space="preserve" width="220px" height="179px" version="1.1" shape-rendering="geometricPrecision" text-rendering="geometricPrecision" image-rendering="optimizeQuality" fill-rule="evenodd" clip-rule="evenodd" viewBox="0 0 8305.8 6763.9"> <g id="Layer_x0020_1"> <metadata id="CorelCorpID_0Corel-Layer"></metadata> <g id="_2020183392144"> <path fill="#FAC871" fill-opacity="0.258824" d="M8265.8 4573.7c-308.1,-800.8 -586.8,-1618.9 -939.8,-2401.2 -176.8,-393 -352,-791.7 -631.6,-1121.8 -580.2,-667.2 -1421.8,-1050.7 -2306,-1050.7 -101.5,0 -203.3,5.2 -304,15.3 -573.5,62.1 -1110.7,285.6 -1644,490.6 -572.9,220 -1149.4,424.6 -1717.6,657.6l-76.9 34.3 29.8 73c231.3,560.9 451.8,1124.8 681.3,1685.7 70.2,172.6 142.1,344.2 215.8,514.8 166.5,394 312.3,830.2 560.9,1180.5 389.4,550.7 953.6,954.3 1600.7,1144.4 258,73.2 525.9,110.8 794.2,110.8 49.9,0 100.5,-1.4 150,-3.9 222.1,-10.2 442.7,-49.4 654.8,-116.1 93.6,-27.6 186,-58.7 275.3,-91l868.1 -321c577.3,-215.8 1152.1,-438.9 1725.9,-660.2l103.1 -40.5 -40 -100.6z"></path> <path fill="#FAC871" fill-opacity="0.160784" d="M6087.7 5224c-338.7,-547.6 -657.6,-1112 -1026,-1639.7 -185.6,-265.3 -369.8,-534.5 -621.4,-737.8 -404,-319.2 -904.7,-493.4 -1420.1,-493.4 -218.9,0 -437.5,31.6 -647.5,93.4 -365.9,110.4 -693,310.2 -1016.1,510.4l-129.5 79.4c-391.8,241.7 -788.3,472.5 -1174.9,723.2l-52.2 34.5 32.4 49.6c324,498 636.4,1003.2 965.2,1497.7 177.7,267 345.2,568.7 577.3,792.6 363.2,351.4 834.9,570.5 1337.5,621 65.6,5.8 132.6,9 198.7,9 172.3,0 344.8,-20.9 512.1,-61.3 235.2,-51.8 456.5,-164 656.7,-281.8l595.9 -357.3c150.9,-90.8 301.6,-182.8 452.1,-276 243.4,-149.3 485.8,-302.1 729.2,-450.5l70.8 -43.2 -40.2 -69.8z"></path> </g> </g> </svg> 