<?xml version="1.0" encoding="UTF-8"?> <svg xmlns="http://www.w3.org/2000/svg" xmlns:xlink="http://www.w3.org/1999/xlink" xml:space="preserve" width="197px" height="180px" version="1.1" shape-rendering="geometricPrecision" text-rendering="geometricPrecision" image-rendering="optimizeQuality" fill-rule="evenodd" clip-rule="evenodd" viewBox="0 0 3174.3 2894.6"> <g id="Layer_x0020_1"> <metadata id="CorelCorpID_0Corel-Layer"></metadata> <g id="_2020183385296"> <path fill="#FAC871" fill-opacity="0.258824" d="M3142.9 816.9c-324.8,-90.6 -647.2,-189 -973.6,-276.6 -34.9,-9.4 -70.2,-19.5 -105.6,-29.8 -143.5,-41.3 -291.2,-84.7 -437.4,-91.9 -20.1,-1 -40.9,-1.4 -61.2,-1.4 -266.1,0 -526,83.5 -742.4,238.4 -109.5,79.8 -205.6,177.6 -283.5,288.6 -80.9,110.2 -133,240.8 -174.4,366.3l-61.5 192.9 -58.4 182.6c-79.2,250 -154.7,501.4 -231.3,753.1l-13.6 45.2 44.3 13.2c349,106.8 696.7,227.8 1051.8,314.5 178.2,43.6 357.9,89.3 541.4,81.8 421.3,-22 805.8,-247.6 1031.1,-604.3 129.7,-208.5 195.4,-447.3 266.5,-679.7 76.4,-249.9 158.9,-496 229.8,-748.4l9.4 -34.4 -31.4 -10.1z"></path> <path fill="#FAC871" fill-opacity="0.160784" d="M2090.3 77.3c-215.9,-18.3 -431.3,-42.2 -647.4,-58.9 -116.8,-9 -241.2,-28.3 -357.4,-12.1 -182.9,25.4 -351.9,111.9 -479.5,245.3 -59.7,63.6 -108.7,136.7 -144.7,216 -35.1,80.1 -57.7,165.4 -66.5,252.2l-31 251.5c-20.4,167.4 -38.1,335.3 -56.6,503l-3 29.2 0 0 29.4 3.1c233.5,25.8 467.4,60.8 702,73.5 117.9,6.3 236.7,13.8 351.7,-12.8 263.4,-64.1 479.7,-252.4 579.5,-504.5 57,-146.9 70.2,-306 87.3,-461.4 3.5,-30.7 7,-61.2 10.6,-91.9 16,-136.1 33.5,-271.7 45.4,-408.3l1.9 -22.8 -21.7 -1.1z"></path> </g> </g> </svg> 